<svg xmlns="http://www.w3.org/2000/svg" viewBox="0 0 24 24"><path fill="#25D366" d="M12.04 0C5.4 0 .01 5.39.01 12.03c0 2.12.55 4.19 1.6 6.02L0 24l6.1-1.6a12 12 0 0 0 5.94 1.57h.01c6.63 0 12.03-5.39 12.03-12.03 0-3.21-1.25-6.24-3.53-8.51A11.94 11.94 0 0 0 12.04 0Z"/><path fill="#fff" d="M9.07 6.99c-.22-.5-.46-.51-.67-.51h-.57c-.2 0-.52.07-.8.37-.27.3-1.04 1.02-1.04 2.48s1.07 2.88 1.22 3.08c.15.2 2.07 3.31 5.1 4.51 2.52 1 3.03.8 3.58.75.55-.05 1.76-.72 2.01-1.41.25-.7.25-1.29.17-1.41-.07-.13-.27-.2-.57-.35-.3-.15-1.76-.87-2.03-.97-.27-.1-.47-.15-.67.15-.2.3-.77.97-.94 1.17-.17.2-.35.22-.65.07-.3-.15-1.25-.46-2.39-1.47-.88-.79-1.48-1.76-1.65-2.06-.17-.3-.02-.46.13-.61.13-.13.3-.35.45-.52.15-.17.2-.3.3-.5.1-.2.05-.37-.02-.52-.08-.15-.66-1.62-.93-2.21Z"/></svg>
